# xmcd
#
# Track frame offsets: 
#        150
#        17238
#        34243
#        47949
#        61525
#        81911
#        102462
#        123351
#        133415
#        148091
#        158667
#        175518
#        190156
#        203182
#        216684
#        227227
#        237583
#        247367
#        262446
#        274085
#        288088
#
# Disc length: 4027 seconds
#
# Revision: 0
# Processed by: cddbd v1.5.1PL0 Copyright (c) Steve Scherf et al.
# Submitted via: ExactAudioCopy v0.95b1
#
DISCID=500fb915
DTITLE=电视剧 - 四大名著 DISK II
DYEAR=2005
DGENRE=Country
TTITLE0=敢问路在何方
TTITLE1=天竺少女
TTITLE2=大圣歌
TTITLE3=相见难别亦难
TTITLE4=青青菩提树
TTITLE5=女儿情
TTITLE6=五百年前桑田沧海
TTITLE7=睛天月儿明
TTITLE8=留不住去也难
TTITLE9=心中有路是坦途
TTITLE10=多少情和意
TTITLE11=何必西天万里遥
TTITLE12=取经归来
TTITLE13=通天大道宽又阔
TTITLE14=看我跃马扬鞭
TTITLE15=猴哥
TTITLE16=一个师傅三个徒弟
TTITLE17=我欲成仙
TTITLE18=相思
TTITLE19=滚滚长江乐逝水
TTITLE20=历史的天空
EXTD=
EXTT0=
EXTT1=
EXTT2=
EXTT3=
EXTT4=
EXTT5=
EXTT6=
EXTT7=
EXTT8=
EXTT9=
EXTT10=
EXTT11=
EXTT12=
EXTT13=
EXTT14=
EXTT15=
EXTT16=
EXTT17=
EXTT18=
EXTT19=
EXTT20=
PLAYORDER=
